<?xml version="1.0" encoding="utf-8"?>
<!-- Generator: Adobe Illustrator 26.0.0, SVG Export Plug-In . SVG Version: 6.00 Build 0)  -->
<svg version="1.1" xmlns="http://www.w3.org/2000/svg" xmlns:xlink="http://www.w3.org/1999/xlink" x="0px" y="0px"
	 viewBox="0 0 512 512" style="enable-background:new 0 0 512 512;" xml:space="preserve">
<style type="text/css">
	.st0{display:none;}
	.st1{display:inline;}
	.st2{font-family:'ProximaNovaA-Bold';}
	.st3{font-size:33.3254px;}
</style>
<g id="_x31__x2C_5">
	<path d="M453.3,490.7H58.7C26.3,490.7,0,464.4,0,432V80c0-32.4,26.3-58.7,58.7-58.7h394.7c32.4,0,58.7,26.3,58.7,58.7v352
		C512,464.4,485.7,490.7,453.3,490.7z M58.7,53.3C44,53.3,32,65.3,32,80v352c0,14.7,12,26.7,26.7,26.7h394.7
		c14.7,0,26.7-12,26.7-26.7V80c0-14.7-12-26.7-26.7-26.7H58.7z"/>
	<path d="M496,128H16c-8.8,0-16-7.2-16-16s7.2-16,16-16h480c8.8,0,16,7.2,16,16S504.8,128,496,128z"/>
	<g>
		<path d="M58.6,301.7v-46.2h11.9v46.2H58.6z"/>
		<path d="M101.1,301.7v-19.3c0-4.1-2.1-5.5-5.5-5.5c-3.2,0-5.3,1.7-6.5,3.3v21.6H78.5v-33.4h10.7v4.1c2-2.4,6-4.9,11.6-4.9
			c7.5,0,11,4.4,11,10.6v23.7H101.1z"/>
		<path d="M118.6,310.3l4.6-7.5c2.6,2.8,6.3,3.9,10.2,3.9c3.5,0,8.5-1.5,8.5-7.9v-2.6c-2.8,3.3-6.1,4.9-9.9,4.9
			c-8.2,0-14.7-5.6-14.7-16.9c0-11,6.3-16.8,14.7-16.8c3.7,0,7.2,1.5,9.9,4.8v-3.9h10.7v30.5c0,13.6-10.9,16.5-19.2,16.5
			C127.7,315.3,122.9,313.8,118.6,310.3z M142,288.8v-8.9c-1.3-1.8-4.2-3-6.4-3c-4.2,0-7.3,2.6-7.3,7.4c0,4.9,3.1,7.5,7.3,7.5
			C137.8,291.7,140.7,290.6,142,288.8z"/>
		<path d="M157.3,295.2l6.3-9.3c3.3,3.3,8.4,6.1,14.8,6.1c4,0,6.5-1.4,6.5-3.7c0-6.1-26.1-1-26.1-18.8c0-7.8,6.5-14.7,18.3-14.7
			c7.4,0,13.8,2.2,18.8,6.4l-6.5,8.9c-3.9-3.3-8.9-4.8-13.5-4.8c-3.5,0-5,1.2-5,3.2c0,5.7,26.1,1.4,26.1,18.6
			c0,9.3-6.9,15.4-19.2,15.4C168.5,302.5,162,299.6,157.3,295.2z"/>
		<path d="M200.2,285c0-9.4,6.8-17.5,18.1-17.5c11.5,0,18.3,8.1,18.3,17.5c0,9.4-6.8,17.6-18.3,17.6
			C207,302.5,200.2,294.4,200.2,285z M225.7,285c0-4.4-2.6-8.1-7.3-8.1c-4.6,0-7.2,3.7-7.2,8.1c0,4.5,2.6,8.2,7.2,8.2
			C223,293.1,225.7,289.5,225.7,285z"/>
		<path d="M244.5,301.7v-24.2H239v-9.2h5.5v-0.8c0-8,5-12.7,12-12.7c3.6,0,7.3,1,9.6,3.1l-3.9,6.6c-0.8-0.8-1.9-1.2-3.5-1.2
			c-1.9,0-3.5,1.3-3.5,4.1v0.8h6.8v9.2h-6.8v24.2H244.5z"/>
		<path d="M268.6,292.7v-15.2H263v-9.2h5.5v-9.1h10.7v9.1h6.8v9.2h-6.8v12.3c0,1.9,1.1,3.4,2.9,3.4c1.2,0,2.4-0.4,2.7-0.8l2.1,8
			c-1.3,1.2-3.9,2.2-7.9,2.2C272.3,302.5,268.6,299.1,268.6,292.7z"/>
		<path d="M291.6,301.7v-46.2h11.9v46.2H291.6z"/>
		<path d="M352.8,301.7v-20.9c0-5.3-2.7-6.9-6.8-6.9c-3.7,0-6.9,2.2-8.6,4.4v23.4h-7.3v-33.4h7.3v4.5c2.2-2.6,6.6-5.3,11.8-5.3
			c7.2,0,10.8,3.9,10.8,10.7v23.5H352.8z"/>
		<path d="M367.5,285c0-9.7,7.1-17.5,17-17.5c10,0,16.4,7.6,16.4,18.1v1.8h-25.8c0.6,5,4.3,9.2,10.6,9.2c3.3,0,7.1-1.3,9.6-3.7
			l3.3,4.8c-3.4,3.2-8.3,4.9-13.6,4.9C374.9,302.5,367.5,295.5,367.5,285z M384.4,273.4c-6.2,0-9.1,4.8-9.3,8.8h18.8
			C393.7,278.2,391,273.4,384.4,273.4z"/>
		<path d="M437.3,301.7l-7.8-24.5l-7.8,24.5h-7.6l-10.4-33.4h7.5l7.1,24.3l8-24.3h6.4l7.9,24.3l7.1-24.3h7.6l-10.4,33.4H437.3z"/>
		<path d="M456.5,297.6c0-2.6,2.2-4.8,4.8-4.8c2.6,0,4.8,2.2,4.8,4.8c0,2.6-2.2,4.9-4.8,4.9C458.8,302.5,456.5,300.2,456.5,297.6z"
			/>
	</g>
</g>
<g id="Capa_2" class="st0">
	<text transform="matrix(1 0 0 1 41.5762 292.0278)" class="st1 st2 st3">IngenieriaDeSoftwareI new.</text>
	<path class="st1" d="M453.2,496.2H58.6c-32.4,0-58.7-26.3-58.7-58.7v-352c0-32.4,26.3-58.7,58.7-58.7h394.7
		c32.4,0,58.7,26.3,58.7,58.7v352C511.9,469.9,485.6,496.2,453.2,496.2z M58.6,58.8c-14.7,0-26.7,12-26.7,26.7v352
		c0,14.7,12,26.7,26.7,26.7h394.7c14.7,0,26.7-12,26.7-26.7v-352c0-14.7-12-26.7-26.7-26.7H58.6z"/>
	<path class="st1" d="M495.9,133.5h-480c-8.8,0-16-7.2-16-16s7.2-16,16-16h480c8.8,0,16,7.2,16,16S504.7,133.5,495.9,133.5z"/>
</g>
<g id="Capa_3" class="st0">
	<path class="st1" d="M453.2,490.7H58.6c-32.4,0-58.7-26.3-58.7-58.7V80c0-32.4,26.3-58.7,58.7-58.7h394.7
		c32.4,0,58.7,26.3,58.7,58.7v352C511.9,464.4,485.6,490.7,453.2,490.7z M58.6,53.3c-14.7,0-26.7,12-26.7,26.7v352
		c0,14.7,12,26.7,26.7,26.7h394.7c14.7,0,26.7-12,26.7-26.7V80c0-14.7-12-26.7-26.7-26.7H58.6z"/>
	<path class="st1" d="M495.9,128h-480c-8.8,0-16-7.2-16-16s7.2-16,16-16h480c8.8,0,16,7.2,16,16S504.7,128,495.9,128z"/>
	<path class="st1" d="M99.7,306.2H81.2l-1.8,6H61.7l18.9-51.4h19.6l18.9,51.4h-17.6L99.7,306.2z M85.4,292.7h10.2l-5.1-16.6
		L85.4,292.7z"/>
	<path class="st1" d="M121.6,260.9h13.9v51.4h-13.9C121.6,312.3,121.6,260.9,121.6,260.9z"/>
	<path class="st1" d="M147.7,311.9c2.8,2.8,7.1,4.1,11.1,4.1c3.2,0,8.6-1.2,8.6-7.8v-2c-3.2,3.6-6.6,5-10.5,5
		c-8.9,0-16.3-5.9-16.3-18.6c0-12.4,7.2-18.6,16.3-18.6c3.9,0,7.5,1.3,10.5,4.8V275h13.9v33.2c0,16.1-13.2,19.1-22.5,19.1
		c-6.4,0-12.1-1.7-16.9-5.5L147.7,311.9z M167.4,288.7c-1.3-1.5-3.9-2.4-5.7-2.4c-3.8,0-6.9,1.8-6.9,6.3s3.2,6.3,6.9,6.3
		c1.8,0,4.4-0.8,5.7-2.4V288.7z"/>
	<path class="st1" d="M186.5,293.6c0-10.4,7.7-19.5,20.9-19.5s20.9,9.1,20.9,19.5s-7.7,19.6-20.9,19.6S186.5,304,186.5,293.6z
		 M214,293.6c0-4.1-2.4-7.2-6.7-7.2c-4.2,0-6.6,3.2-6.6,7.2c0,4.2,2.4,7.3,6.6,7.3C211.6,300.9,214,297.8,214,293.6z"/>
	<path class="st1" d="M238.1,294.5c4,3.5,10,4.9,13.9,4.9c5.1,0,7.5-1.6,7.5-3.5c0-1.8-1.1-2.8-7.9-2.8c-2.2,0-6.7,0.1-7.5,0.2
		v-13.8c1,0.1,5.6,0.1,7.5,0.1c4.9,0,7.1-0.9,7.1-2.5c0-2.4-3.2-3.3-7.6-3.3c-4.4,0-9,1.5-12.5,4.5l-7.3-9.7
		c4.5-5,11.5-8.5,21.6-8.5c14.2,0,21.4,5.8,21.4,14.2c0,5.5-4.8,10.3-11.3,11.4c5.7,0.6,12.2,4.9,12.2,12c0,9.2-9,15.4-22.3,15.4
		c-10.2,0-17.9-3.4-22.2-8L238.1,294.5z"/>
	<path class="st1" d="M327.4,288.4c0-6.2-3.2-8.2-7.9-8.2c-4.3,0-8.2,2.6-10.2,5.4v26.6h-6.9V275h6.9v5.2c2.5-3,7.4-6.2,13.2-6.2
		c7.9,0,11.9,4.2,11.9,12v26.1h-6.9v-23.7H327.4z"/>
	<path class="st1" d="M361.7,274.1c11.2,0,18.1,8.7,18.1,20.1v1.7h-29.4c0.5,6.3,5.2,11.5,12.6,11.5c3.9,0,8.2-1.5,11-4.4l3.2,4.5
		c-3.7,3.6-8.9,5.5-14.9,5.5c-11.1,0-19.2-7.9-19.2-19.6C343.1,282.8,350.9,274.1,361.7,274.1z M350.3,290.9H373
		c-0.2-4.9-3.5-11.1-11.3-11.1C354.2,279.8,350.7,285.8,350.3,290.9z"/>
	<path class="st1" d="M411.6,283.7l-9.2,28.6h-7.2L383.6,275h7.2l8.5,28.3l9.3-28.3h6l9.3,28.3l8.5-28.3h7.2l-11.7,37.2h-7.2
		L411.6,283.7z"/>
	<path class="st1" d="M446.1,303.5c2.6,0,4.9,2.2,4.9,4.8s-2.2,4.9-4.9,4.9c-2.6,0-4.8-2.2-4.8-4.9S443.5,303.5,446.1,303.5z"/>
</g>
</svg>
